<svg width="136" height="32" viewBox="0 0 136 32" fill="none" xmlns="http://www.w3.org/2000/svg">
<path d="M50.9519 16.5545V24.3919H48.6252V17.111C48.6252 15.0705 47.6146 13.888 45.5935 13.888C42.7497 13.888 42.1152 16.1835 42.1152 17.8067V24.3687H39.765V12.1489H41.8332L41.9507 14.1662C42.7027 12.8213 44.2538 11.9634 46.2515 11.9634C49.3537 11.9634 50.9519 13.6329 50.9519 16.5545Z" fill="white"/>
<path d="M65.6639 18.966H55.7697C55.9577 21.6094 57.7673 22.8384 60.282 22.8384C61.8331 22.8384 63.2432 22.2819 64.4888 21.1457L65.5464 22.7224C64.0423 23.9746 62.3032 24.5774 60.282 24.5774C58.0728 24.5774 56.3807 24.0209 55.1586 22.8616C53.9365 21.7022 53.349 20.1718 53.349 18.2704C53.349 16.3922 53.913 14.8618 55.0646 13.7024C56.2162 12.5431 57.8143 11.9634 59.859 11.9634C61.6921 11.9634 63.1257 12.4503 64.2068 13.4706C65.2879 14.4676 65.8284 15.8125 65.8284 17.5516C65.7814 17.9458 65.7344 18.4095 65.6639 18.966ZM55.7697 17.4125H63.3137C63.3372 17.3429 63.3372 17.227 63.3372 17.0647C63.3372 15.001 61.9976 13.6561 59.8355 13.6561C57.5323 13.6329 55.9812 14.9778 55.7697 17.4125Z" fill="white"/>
<path d="M78.7779 24.3922H76.1693L72.738 19.5692L69.1892 24.3922H66.7921L71.3514 18.3403L66.8626 12.1492H69.4948L72.832 16.7171L76.2633 12.1492H78.6369L74.2186 18.062L78.7779 24.3922Z" fill="white"/>
<path d="M82.2796 20.6356V13.9576H79.3654V12.1721H80.7755C82.0446 12.1721 82.4912 11.5924 82.4912 10.3635V8.2998H84.6298V12.1721H88.8836V13.9576H84.6298V20.4501C84.6063 21.6327 84.8178 22.6066 86.463 22.7225C87.168 22.7225 87.9906 22.6529 88.9306 22.4906L88.9776 24.3456C88.2726 24.5079 87.262 24.5775 85.9459 24.5775C83.4782 24.5775 82.2796 23.0703 82.2796 20.6356Z" fill="white"/>
<path d="M102.961 13.749C104.089 14.9547 104.63 16.4619 104.63 18.2706C104.63 20.0792 104.089 21.5864 102.961 22.7922C101.833 23.9979 100.306 24.5776 98.3549 24.5776C96.2397 24.5776 94.6886 23.9052 93.7016 22.5139V28.4036H91.3514V12.1722H93.3725L93.6075 14.3519C94.5476 12.7751 96.4043 11.9867 98.3784 11.9867C100.353 11.9635 101.88 12.5664 102.961 13.749ZM101.011 21.4705C101.81 20.6821 102.209 19.6155 102.209 18.2706C102.209 16.9257 101.81 15.8591 101.011 15.0939C100.212 14.2823 99.201 13.8881 97.9319 13.8881C96.7098 13.8881 95.7227 14.2823 94.8766 15.1171C94.0541 15.9054 93.6546 16.9721 93.6546 18.2706C93.6546 19.5459 94.0541 20.5893 94.8766 21.4241C95.6992 22.2588 96.7098 22.653 97.9319 22.653C99.201 22.653 100.235 22.2357 101.011 21.4705Z" fill="white"/>
<path d="M117.579 12.1489H119.741V24.3687H117.603L117.415 21.9572C116.522 23.6963 114.877 24.5774 112.55 24.5774C110.67 24.5774 109.189 23.9977 108.085 22.8384C106.98 21.6558 106.44 20.1486 106.44 18.34C106.44 16.485 107.004 14.9546 108.132 13.7488C109.283 12.5431 110.811 11.9634 112.691 11.9634C114.853 11.9634 116.569 12.8445 117.438 14.3981L117.579 12.1489ZM116.193 21.4471C117.015 20.6124 117.438 19.5921 117.438 18.2936C117.438 16.9951 117.039 15.9516 116.216 15.1169C115.394 14.2821 114.407 13.888 113.185 13.888C110.646 13.888 108.907 15.5575 108.907 18.2936C108.907 20.9602 110.623 22.6529 113.185 22.6529C114.36 22.6529 115.37 22.2355 116.193 21.4471Z" fill="white"/>
<path d="M131.727 12.1492H134.054L127.544 28.3805H125.17L126.769 24.5314L121.551 12.1724H124.066L126.251 17.5751L127.967 22.0271H128.014L129.636 17.5751L131.727 12.1492Z" fill="white"/>
<path d="M27.7556 6.12023L20.5876 23.5573C20.3056 24.2298 19.4595 24.4848 18.8485 24.0906L15.6052 21.9574C15.2292 21.7023 14.7357 21.8646 14.5711 22.2588L11.939 28.5658C11.7274 29.0991 12.1975 29.6325 12.7615 29.5165L29.2127 25.4123C30.1998 25.1573 30.9284 24.2993 30.9754 23.2791L31.8919 6.18979C31.9389 5.4246 31.2104 4.82172 30.4583 5.00722L28.5782 5.44779C28.2022 5.51736 27.8966 5.77242 27.7556 6.12023Z" fill="white"/>
<path d="M2.30311 11.0824L29.3301 4.07979L29.3536 3.56966C29.4006 2.7581 28.6251 2.15522 27.826 2.41028C22.5616 4.01023 7.33249 8.7405 1.78607 10.781C1.85658 10.9897 2.09159 11.1288 2.30311 11.0824Z" fill="white"/>
<path d="M1.2926 10.5492L26.369 1.73789V1.18139C26.3925 0.346631 25.5229 -0.233054 24.7473 0.091572L1.12808 9.64486C0.470036 9.89992 0.0235023 10.5492 0.0235023 11.2448L0 29.679C0 31.1861 1.43361 32.2991 2.91422 31.9281L5.3819 31.3253C5.73443 31.2325 6.03995 30.9775 6.18096 30.6296L12.5499 15.2099C12.832 14.5374 13.6545 14.2824 14.2656 14.6766L18.1434 17.1113C18.5194 17.3431 19.0129 17.1808 19.1774 16.7866L22.7967 7.85942C23.0082 7.34929 22.5382 6.79279 21.9741 6.93192L2.30317 11.4535C1.83314 11.5694 1.3866 11.268 1.2926 10.8042V10.5492Z" fill="white"/>
</svg>
