<?xml version="1.0" encoding="utf-8"?>
<!-- Generator: Adobe Illustrator 24.0.1, SVG Export Plug-In . SVG Version: 6.00 Build 0)  -->
<svg version="1.1" id="Layer_1" xmlns="http://www.w3.org/2000/svg" xmlns:xlink="http://www.w3.org/1999/xlink" x="0px" y="0px"
	 viewBox="0 0 570 138" style="enable-background:new 0 0 570 138;" xml:space="preserve">
<style type="text/css">
	.st0{fill:#4b68fe;}
</style>
<g>
	<path d="M216.9,71.01v33.77h-9.94V73.44c0-8.82-4.26-13.9-12.88-13.9c-12.07,0-14.81,9.94-14.81,16.94v28.3h-10.04V52.04h8.82
		l0.51,8.72c3.25-5.78,9.84-9.53,18.26-9.53C210.1,51.23,216.9,58.43,216.9,71.01z"/>
	<path d="M279.48,81.36h-42.09c0.81,11.36,8.52,16.74,19.17,16.74c6.59,0,12.58-2.43,17.85-7.3l4.46,6.8
		c-6.39,5.38-13.79,8.01-22.42,8.01c-9.43,0-16.63-2.43-21.81-7.4c-5.17-4.97-7.71-11.56-7.71-19.78c0-8.11,2.43-14.71,7.3-19.68
		c4.87-4.97,11.66-7.5,20.39-7.5c7.81,0,13.9,2.13,18.46,6.49c4.56,4.26,6.9,10.14,6.9,17.55
		C279.99,76.99,279.79,79.02,279.48,81.36z M237.39,74.66h32.05c0.1-0.3,0.1-0.81,0.1-1.52c0-8.93-5.68-14.71-14.91-14.71
		C244.89,58.43,238.3,64.21,237.39,74.66z"/>
	<path d="M335.27,104.78h-11.06l-14.61-20.79l-15.11,20.79h-10.24l19.37-26.07l-19.07-26.68h11.16l14.2,19.68l14.61-19.68h10.14
		L315.9,77.5L335.27,104.78z"/>
	<path d="M350.18,88.56v-28.8h-12.37v-7.71h5.98c5.38,0,7.3-2.54,7.3-7.81v-8.93h9.13v16.74h18.15v7.71h-18.15v27.99
		c-0.1,5.07,0.81,9.33,7.81,9.84c3.04,0,6.49-0.3,10.45-1.01l0.2,8.01c-3.04,0.71-7.3,1.01-12.88,1.01
		C355.25,105.6,350.18,99.1,350.18,88.56z"/>
	<path d="M438.22,58.94c4.77,5.17,7.1,11.66,7.1,19.47s-2.33,14.3-7.1,19.47c-4.77,5.17-11.26,7.71-19.57,7.71
		c-9.03,0-15.62-2.94-19.78-8.93v25.36h-10.04V52.04h8.62l1.01,9.43c3.96-6.8,11.87-10.24,20.29-10.24
		C427.06,51.23,433.56,53.77,438.22,58.94z M429.9,92.21c3.35-3.45,5.07-8.01,5.07-13.79s-1.72-10.35-5.07-13.69
		c-3.35-3.45-7.71-5.17-13.08-5.17c-5.17,0-9.43,1.73-12.98,5.27c-3.45,3.45-5.17,8.01-5.17,13.59c0,5.48,1.72,10.04,5.17,13.59
		c3.45,3.55,7.81,5.27,12.98,5.27C422.2,97.28,426.56,95.55,429.9,92.21z"/>
	<path d="M500.4,52.04h9.23v52.74h-9.13l-0.81-10.45c-3.85,7.51-10.75,11.26-20.69,11.26c-8.01,0-14.3-2.54-18.97-7.51
		c-4.67-5.07-7-11.56-7-19.37c0-8.01,2.43-14.61,7.2-19.78c4.87-5.17,11.36-7.71,19.37-7.71c9.23,0,16.53,3.75,20.18,10.55
		L500.4,52.04z M494.51,92.11c3.55-3.55,5.27-8.01,5.27-13.59s-1.72-10.14-5.17-13.69c-3.45-3.55-7.71-5.27-12.88-5.27
		c-10.85,0-18.16,7.2-18.16,18.97c0,11.46,7.3,18.76,18.16,18.76C486.7,97.28,490.96,95.55,494.51,92.11z"/>
	<path d="M560.55,52.04h9.94l-27.69,69.98h-10.14l6.8-16.63l-22.21-53.35h10.75l9.33,23.33l7.3,19.17h0.2l6.9-19.17L560.55,52.04z"
		/>
</g>
<g>
	<path class="st0" d="M118.13,25.98L87.61,101.2c-1.19,2.94-4.78,4.04-7.42,2.27l-13.78-9.23c-1.58-1.06-3.72-0.4-4.44,1.35
		l-11.15,27.15c-0.94,2.28,1.12,4.65,3.51,4.05l69.96-17.73c4.24-1.08,7.3-4.79,7.53-9.16l3.95-73.66c0.18-3.33-2.89-5.9-6.13-5.14
		l-8.02,1.88C120.04,23.36,118.74,24.48,118.13,25.98z"/>
	<path class="st0" d="M9.91,47.37l115-30.18l0.11-2.25c0.17-3.47-3.15-6.05-6.47-5.02C96.17,16.86,31.34,37.21,7.79,45.97v0
		C7.94,46.98,8.93,47.63,9.91,47.37z"/>
	<path class="st0" d="M5.6,45.08L112.29,7.11l0.03-2.38c0.05-3.58-3.58-6.05-6.9-4.69L4.91,41.23c-2.83,1.14-4.69,3.89-4.69,6.94
		L0.1,127.66c-0.01,6.52,6.13,11.31,12.45,9.71l10.49-2.65c1.54-0.39,2.8-1.49,3.4-2.96l27.13-66.48c1.18-2.89,4.68-4,7.31-2.33
		l16.49,10.47c1.58,1.01,3.69,0.33,4.39-1.42l15.41-38.46c0.9-2.25-1.1-4.59-3.47-4.04L10.04,49.02c-1.98,0.46-3.93-0.85-4.26-2.85
		L5.6,45.08z"/>
</g>
</svg>
